<svg width="29" height="18" viewBox="0 0 29 18" fill="none" xmlns="http://www.w3.org/2000/svg" id="VCLIconRed">
<g clip-path="url(#clip0_129_881)">
<path fill-rule="evenodd" clip-rule="evenodd" d="M17.4 4.2C16.4059 4.2 15.6 3.39411 15.6 2.4C15.6 1.40589 16.4059 0.6 17.4 0.6C18.3941 0.6 19.2 1.40589 19.2 2.4C19.2 3.39411 18.3941 4.2 17.4 4.2ZM22.2 4.2C21.2059 4.2 20.4 3.39411 20.4 2.4C20.4 1.40589 21.2059 0.6 22.2 0.6C23.1941 0.6 24 1.40589 24 2.4C24 3.39411 23.1941 4.2 22.2 4.2ZM27 4.2C26.0059 4.2 25.2 3.39411 25.2 2.4C25.2 1.40589 26.0059 0.6 27 0.6C27.9941 0.6 28.8 1.40589 28.8 2.4C28.8 3.39411 27.9941 4.2 27 4.2ZM17.4 9C16.4059 9 15.6 8.19411 15.6 7.2C15.6 6.20589 16.4059 5.4 17.4 5.4C18.3941 5.4 19.2 6.20589 19.2 7.2C19.2 8.19411 18.3941 9 17.4 9ZM22.2 9C21.2059 9 20.4 8.19411 20.4 7.2C20.4 6.20589 21.2059 5.4 22.2 5.4C23.1941 5.4 24 6.20589 24 7.2C24 8.19411 23.1941 9 22.2 9ZM27 9C26.0059 9 25.2 8.19411 25.2 7.2C25.2 6.20589 26.0059 5.4 27 5.4C27.9941 5.4 28.8 6.20589 28.8 7.2C28.8 8.19411 27.9941 9 27 9ZM17.4 13.8C16.4059 13.8 15.6 12.9941 15.6 12C15.6 11.0059 16.4059 10.2 17.4 10.2C18.3941 10.2 19.2 11.0059 19.2 12C19.2 12.9941 18.3941 13.8 17.4 13.8ZM22.2 13.8C21.2059 13.8 20.4 12.9941 20.4 12C20.4 11.0059 21.2059 10.2 22.2 10.2C23.1941 10.2 24 11.0059 24 12C24 12.9941 23.1941 13.8 22.2 13.8ZM27 13.8C26.0059 13.8 25.2 12.9941 25.2 12C25.2 11.0059 26.0059 10.2 27 10.2C27.9941 10.2 28.8 11.0059 28.8 12C28.8 12.9941 27.9941 13.8 27 13.8ZM12.6 14.4L9.6 18H9V14.4H1.2C0.537258 14.4 0 13.8627 0 13.2V1.2C0 0.537258 0.537258 0 1.2 0H13.2C13.8627 0 14.4 0.537258 14.4 1.2V13.2C14.4 13.8627 13.8627 14.4 13.2 14.4H12.6ZM7.2 9.51652L10.16 11.7L9.04 8.14174L12 6.03913H8.4L7.2 2.4L6 6.03913H2.4L5.36 8.14174L4.24 11.7L7.2 9.51652Z" fill="#8B1303"/>
</g>
<defs>
<clipPath id="clip0_129_881">
<rect width="28.8" height="18" fill="white"/>
</clipPath>
</defs>
</svg>
